<?xml version="1.0" standalone="no"?>
<!DOCTYPE svg PUBLIC "-//W3C//DTD SVG 20010904//EN"
 "http://www.w3.org/TR/2001/REC-SVG-20010904/DTD/svg10.dtd">
<svg version="1.0" xmlns="http://www.w3.org/2000/svg"
 width="700.000000pt" height="700.000000pt" viewBox="0 0 700.000000 700.000000"
 preserveAspectRatio="xMidYMid meet">
<metadata>
Created by potrace 1.11, written by Peter Selinger 2001-2013
</metadata>
<g transform="translate(0.000000,700.000000) scale(0.100000,-0.100000)"
fill="#000000" stroke="none">
<path d="M790 6993 c-381 -60 -672 -323 -766 -693 -18 -73 -19 -153 -19 -2800
0 -2647 1 -2727 19 -2800 86 -338 338 -590 676 -676 73 -18 153 -19 2800 -19
2647 0 2727 1 2800 19 353 90 609 358 681 713 19 89 19 181 16 2800 -2 2707
-2 2708 -23 2778 -105 354 -360 594 -709 666 -87 18 -192 19 -2770 18 -1474
-1 -2691 -3 -2705 -6z m5225 -1388 c83 -22 210 -84 272 -134 100 -80 192 -229
235 -378 20 -67 23 -102 23 -243 0 -141 -4 -177 -23 -250 -70 -258 -251 -437
-506 -500 -120 -30 -297 -30 -410 0 -254 65 -432 242 -506 500 -30 105 -38
304 -16 426 54 312 264 529 571 590 87 17 276 12 360 -11z m-5215 -292 l1
-278 89 95 c49 52 162 177 252 277 l163 181 198 1 c108 1 197 -1 197 -4 0 -13
-302 -348 -452 -501 l-167 -170 152 -155 c84 -85 197 -212 251 -284 94 -123
256 -357 256 -370 0 -3 -89 -4 -197 -3 l-197 3 -75 106 c-130 182 -212 280
-341 409 l-125 125 -3 -317 -2 -318 -170 0 -170 0 0 740 0 740 170 0 170 0 0
-277z m1472 -155 l3 -431 49 74 c149 224 389 542 537 709 l70 80 140 0 139 0
0 -745 0 -745 -162 2 -163 3 -5 485 -5 484 -91 -114 c-171 -215 -352 -480
-499 -732 l-69 -118 -143 0 -143 0 0 740 0 740 170 0 170 0 2 -432z m1618 152
l0 -280 280 0 280 0 0 280 0 280 170 0 170 0 0 -745 0 -745 -167 2 -168 3 -3
318 -2 317 -280 0 -280 0 0 -320 0 -320 -165 0 -165 0 0 745 0 745 165 0 165
0 0 -280z m1484 -1455 c21 -67 57 -112 111 -136 112 -51 243 8 276 124 7 23
16 46 20 51 5 5 70 -7 155 -29 l146 -39 -6 -45 c-15 -113 -110 -244 -220 -306
-256 -143 -588 -73 -738 154 -34 52 -79 183 -67 195 4 4 274 81 300 85 3 1 13
-24 23 -54z m-1732 -860 c211 -465 409 -958 619 -1542 60 -167 109 -306 109
-309 0 -2 -113 -3 -251 -2 l-251 3 -77 223 -76 222 -406 0 -405 0 -76 -222
-75 -223 -242 -3 c-132 -1 -241 1 -241 5 0 16 201 571 306 845 134 350 308
772 400 971 36 78 78 168 92 200 l27 57 223 -2 224 -3 100 -220z m1460 -387
l3 -612 119 175 c259 377 497 690 704 922 l114 127 189 0 189 0 0 -1040 0
-1040 -230 0 -230 0 0 678 -1 677 -45 -50 c-191 -212 -546 -725 -788 -1137
l-98 -168 -194 0 -194 0 0 1040 0 1040 230 0 230 0 2 -612z m-3202 407 l0
-195 -465 0 -465 0 0 -170 0 -170 88 0 c259 -1 493 -31 634 -83 278 -101 422
-327 405 -637 -10 -180 -58 -294 -171 -405 -113 -112 -257 -177 -483 -216
-222 -38 -602 -24 -865 32 l-48 11 0 1014 0 1014 685 0 685 0 0 -195z"/>
<path d="M5670 5308 c-38 -15 -73 -40 -115 -82 -104 -104 -139 -212 -133 -401
5 -141 29 -225 87 -301 47 -63 122 -119 180 -135 66 -19 195 -17 259 5 152 52
245 206 258 426 14 237 -88 432 -258 489 -84 28 -202 28 -278 -1z"/>
<path d="M3268 2642 c-20 -53 -83 -218 -141 -367 -57 -148 -107 -280 -111
-292 l-7 -23 295 0 c163 0 296 2 296 4 0 17 -278 755 -289 768 -4 4 -23 -36
-43 -90z"/>
<path d="M972 1808 l3 -283 149 -3 c229 -4 355 27 433 107 51 51 67 94 66 176
-1 84 -18 129 -68 179 -74 75 -207 106 -448 106 l-137 0 2 -282z"/>
</g>
</svg>
